<svg width="30" height="30" xmlns="http://www.w3.org/2000/svg">

 <g>
  <title>background</title>
  <rect fill="none" id="canvas_background" height="30" width="30" y="-1" x="-1"/>
 </g>
 <g>
  <title>Layer 1</title>
  <rect id="svg_1" fill="#7653FC" rx="5" height="30" width="30"/>
  <path id="svg_2" fill="white" d="m22.31331,21.23656l-3.8674,-3.71298c0.9944,-1.09118 1.5392,-2.4641 1.5392,-3.89338c0,-3.33936 -2.9431,-6.05624 -6.56059,-6.05624c-3.61746,0 -6.56061,2.71688 -6.56061,6.05624c0,3.33936 2.94315,6.05626 6.56061,6.05626c1.35804,0 2.65219,-0.3781 3.75869,-1.0959l3.8967,3.7412c0.1629,0.1561 0.3819,0.2422 0.6167,0.2422c0.2222,0 0.433,-0.0782 0.593,-0.2204c0.34,-0.302 0.3508,-0.8028 0.0237,-1.117zm-8.88879,-12.08271c2.67387,0 4.84919,2.00804 4.84919,4.47635c0,2.46832 -2.17532,4.47636 -4.84919,4.47636c-2.67388,0 -4.84915,-2.00804 -4.84915,-4.47636c0,-2.46831 2.17527,-4.47635 4.84915,-4.47635z"/>
 </g>
</svg>
